# AST/ASF file generated using VICON BodyLanguage
# -----------------------------------------------
:version 1.10
:name VICON
:units
  mass 1.0
  length 0.45
  angle deg
:documentation
   .ast/.asf automatically generated from VICON data using
   VICON BodyBuilder and BodyLanguage model FoxedUp or BRILLIANT.MOD
:root
   order TX TY TZ RX RY RZ
   axis XYZ
   position 0 0 0  
   orientation 0 0 0 
:bonedata
  begin
     id 1 
     name lhipjoint
     direction 0.535335 -0.74333 0.401095 
     length 2.04549 
     axis 0 0 0  XYZ
  end
  begin
     id 2 
     name lfemur
     direction 0.34202 -0.939693 0  
     length 6.95643  
     axis 0 0 20  XYZ
    dof rx ry rz
    limits (-160.0 20.0)
           (-70.0 70.0)
           (-60.0 70.0)
  end
  begin
     id 3 
     name ltibia
     direction 0.34192 -0.939729 0   
     length 5.55969   
     axis 0 0 20   XYZ
    dof rx
    limits (-10.0 170.0)
  end
  begin
     id 4 
     name lfoot
     direction 0.216943 -0.596046 0.773088   
     length 2.27918   
     axis -90 7.62852e-016 20   XYZ
    dof rx rz
    limits (-45.0 90.0)
           (-70.0 20.0)
  end
  begin
     id 5 
     name ltoes
     direction 1.53519e-011 -4.21748e-011 1   
     length 1.05562   
     axis -90 7.62852e-016 20   XYZ
    dof rx
    limits (-90.0 20.0)
  end
  begin
     id 6 
     name rhipjoint
     direction -0.576368 -0.719173 0.38806   
     length 2.1142  
     axis 0 0 0  XYZ 
  end
  begin
     id 7 
     name rfemur
     direction -0.34202 -0.939693 0   
     length 7.07928   
     axis 0 0 -20   XYZ
    dof rx ry rz
    limits (-160.0 20.0)
           (-70.0 70.0)
           (-70.0 60.0)
  end
  begin
     id 8 
     name rtibia
     direction -0.34202 -0.939693 0   
     length 5.79974   
     axis 0 0 -20   XYZ
    dof rx
    limits (-10.0 170.0)
 end
 begin
     id 9 
     name rfoot
     direction -0.189288 -0.520065 0.832888   
     length 2.42173  
     axis -90 -7.62852e-016 -20   XYZ
    dof rx rz
    limits (-45.0 90.0)
           (-20.0 70.0)
  end
  begin
     id 10 
     name rtoes
     direction -1.53574e-011 -4.21658e-011 1   
     length 1.14469   
     axis -90 -7.62852e-016 -20   XYZ
    dof rx
    limits (-90.0 20.0)
  end
  begin
     id 11 
     name lowerback
     direction -0.00135702 0.993803 0.111144   
     length 1.91308   
     axis 0 0 0   XYZ
    dof rx ry rz
    limits (-20.0 45.0)
           (-30.0 30.0)
           (-30.0 30.0)
  end
  begin
     id 12 
     name upperback
     direction -0.0056745 0.999813 0.0184631   
     length 1.9212   
     axis 0 0 0   XYZ
    dof rx ry rz
    limits (-20.0 45.0)
           (-30.0 30.0)
           (-30.0 30.0)
  end
  begin
     id 13 
     name thorax
     direction -0.00733434 0.999426 -0.0330788   
     length 1.94196   
     axis 0 0 0   XYZ
    dof rx ry rz
    limits (-20.0 45.0)
           (-30.0 30.0)
           (-30.0 30.0)
  end
  begin
     id 14 
     name lowerneck
     direction 0.0563074 0.996944 -0.0541571   
     length 2.34257   
     axis 0 0 0   XYZ
    dof rx ry rz
    limits (-20.0 45.0)
           (-30.0 30.0)
           (-30.0 30.0)
  end
  begin
     id 15 
     name upperneck
     direction -0.0544519 0.976166 -0.210085   
     length 2.32506   
     axis 0 0 0   XYZ
    dof rx ry rz
    limits (-20.0 45.0)
           (-30.0 30.0)
           (-30.0 30.0)
  end
  begin
     id 16
     name head
     direction -0.0226035 0.997615 -0.0652205  
     length 2.3648  
     axis 0 0 0   XYZ
    dof rx ry rz
    limits (-20.0 45.0)
           (-30.0 30.0)
           (-30.0 30.0)
  end
  begin
     id 17 
     name lclavicle
     direction 0.92109 0.381297 -0.0787716  
     length 4.0487  
     axis 0 0 0   XYZ
    dof ry rz
    limits (-20.0 10.0)
           (0.0 20.0)
  end
  begin
     id 18 
     name lhumerus
     direction 1 -4.48986e-011 3.56724e-027   
     length 4.94991   
     axis 180 -30 -90   XYZ
    dof rx ry rz
    limits (-60.0 90.0)
           (-90.0 90.0)
           (-90.0 90.0)
  end
  begin
     id 19
     name lradius
     direction 1 -4.48981e-011 8.62147e-027   
     length 2.7606   
     axis 180 -30 -90   XYZ
    dof rx
    limits (-10.0 170.0)
  end
  begin
     id 20
     name lwrist
     direction 1 -4.48989e-011 1.59799e-026   
     length 1.3803   
     axis -1.17785e-014 90 90   XYZ
    dof ry
    limits (-180.0 0.0)
 end
  begin
     id 21 
     name lhand
     direction 1 -4.48896e-011 3.19599e-026   
     length 0.843936   
     axis -2.03931e-014 90 90   XYZ
    dof rx rz
    limits (-90.0 90.0)
           (-45.0 45.0)
  end
  begin
     id 22 
     name lfingers
     direction 1 -4.48887e-011 6.39197e-026   
     length 0.680403   
     axis -4.07862e-014 90 90   XYZ
    dof rx
    limits (0.0 90.0)
  end
  begin
     id 23
     name lthumb
     direction 0.707107 -6.348e-011 0.707107   
     length 0.976926   
     axis -90 45 2.85299e-015   XYZ
    dof rx rz
    limits (-45.0 45.0)
           (-45.0 45.0)
  end
  begin
     id 24 
     name rclavicle
     direction -0.951104 0.307692 -0.026953   
     length 4.21801  
     axis 0 0 0   XYZ 
    dof ry rz
    limits (-10.0 20.0)
           (-20.0 0.0)
  end
  begin
     id 25 
     name rhumerus
     direction -1 -4.4896e-011 -1.8171e-018  
     length 4.32982   
     axis 180 30 90   XYZ
    dof rx ry rz
    limits (-90.0 60.0)
           (-90.0 90.0)
           (-90.0 90.0)
  end
  begin
     id 26 
     name rradius
     direction -1 -4.48959e-011 8.25165e-027   
     length 3.20057   
     axis 180 30 90   XYZ
    dof rx
    limits (-10.0 170.0)
  end
  begin
     id 27 
     name rwrist
     direction -1 -4.48997e-011 1.59799e-026   
     length 1.60029   
     axis -1.17785e-014 -90 -90   XYZ
    dof ry
    limits (-180.0 0.0)
  end
  begin
     id 28
     name rhand
     direction -1 -4.49023e-011 3.19599e-026   
     length 0.960433   
     axis -2.03931e-014 -90 -90   XYZ
    dof rx rz
    limits (-90.0 90.0)
           (-45.0 45.0)
  end
  begin
     id 29
     name rfingers
     direction -1 -4.48802e-011 6.39197e-026   
     length 0.774326   
     axis -4.07862e-014 -90 -90   XYZ
    dof rx
    limits (0.0 90.0)
  end
  begin
     id 30
     name rthumb
     direction -0.707107 -6.34876e-011 0.707107   
     length 1.11178   
     axis -90 -45 -2.85299e-015   XYZ
    dof rx rz
    limits (-45.0 45.0)
           (-45.0 45.0)
  end
:hierarchy
  begin
    root lhipjoint rhipjoint lowerback
    lhipjoint lfemur
    lfemur ltibia
    ltibia lfoot
    lfoot ltoes
    rhipjoint rfemur
    rfemur rtibia
    rtibia rfoot
    rfoot rtoes
    lowerback upperback
    upperback thorax
    thorax lowerneck lclavicle rclavicle
    lowerneck upperneck
    upperneck head
    lclavicle lhumerus
    lhumerus lradius
    lradius lwrist
    lwrist lhand lthumb
    lhand lfingers
    rclavicle rhumerus
    rhumerus rradius
    rradius rwrist
    rwrist rhand rthumb
    rhand rfingers
end

#!OML:ASF C:\KaitlinTest1\Natural Motions\Nikki\Session 2\Nikki.ASF
:FULLY-SPECIFIED
:DEGREES
587
root -18.8652 16.631 5.05214 -153.971 85.7611 -163.999
lowerback -13.5212 -1.62632 -0.107843
upperback -3.96125 -1.92939 -0.609807
thorax 3.38906 -0.88021 -0.882377
lowerneck -1.8891 1.60204 8.5665
upperneck 27.2939 3.87334 -5.69363
head 9.09168 2.55148 -3.05693
rclavicle -7.8023e-015 4.77083e-015
rhumerus -42.5262 -22.2397 -79.3567
rradius 18.4342
rwrist 29.1577
rhand -35.8773 3.07517
rfingers 7.12502
rthumb -8.9914 -26.7132
lclavicle -7.8023e-015 4.77083e-015
lhumerus -42.26 16.3607 80.1464
lradius 23.8867
lwrist -40.5195
lhand -32.8304 3.71272
lfingers 7.12502
lthumb -6.05044 33.6063
rfemur -7.70998 -16.7712 21.0633
rtibia 11.031
rfoot -10.6593 11.9651
rtoes -6.20208e-014
lfemur -10.026 12 -17.8759
ltibia 9.83422
lfoot -2.24128 -16.7277
ltoes -1.27222e-014
588
root -18.8636 16.6298 5.05157 -153.888 85.7892 -163.87
lowerback -13.4944 -1.6199 -0.102212
upperback -3.95117 -1.92342 -0.595334
thorax 3.38548 -0.877653 -0.868907
lowerneck -1.87501 1.61219 8.50891
upperneck 27.2928 3.89119 -5.67442
head 9.08856 2.55645 -3.03878
rclavicle 9.31803e-015 -1.98785e-015
rhumerus -42.5391 -22.2685 -79.2869
rradius 18.4152
rwrist 29.2704
rhand -35.8628 3.06767
rfingers 7.12502
rthumb -8.97739 -26.7213
lclavicle 9.31803e-015 -1.98785e-015
lhumerus -42.2965 16.3525 80.2321
lradius 23.9603
lwrist -40.2231
lhand -32.7259 3.76832
lfingers 7.12502
lthumb -5.94963 33.6648
rfemur -7.65868 -16.826 21.0522
rtibia 11.0307
rfoot -10.7195 12.044
rtoes 2.94201e-014
lfemur -9.96354 12.0277 -17.87
ltibia 9.84156
lfoot -2.24563 -16.7143
ltoes -2.8625e-014
589
root -18.8639 16.6304 5.05234 -153.67 85.7809 -163.653
lowerback -13.4842 -1.62006 -0.0994781
upperback -3.95447 -1.92442 -0.587095
thorax 3.37671 -0.878172 -0.861656
lowerneck -1.86123 1.61642 8.50297
upperneck 27.2759 3.89285 -5.65557
head 9.07985 2.55819 -3.03097
rclavicle -6.08778e-015 5.1684e-015
rhumerus -42.5166 -22.1978 -79.3709
rradius 18.4281
rwrist 29.0472
rhand -35.9035 3.00837
rfingers 7.12502
rthumb -9.01667 -26.7789
lclavicle -6.08778e-015 5.1684e-015
lhumerus -42.2955 16.4001 80.1957
lradius 23.9285
lwrist -40.308
lhand -32.7592 3.75422
lfingers 7.12502
lthumb -5.98176 33.6498
rfemur -7.66887 -16.8222 21.0797
rtibia 11.0444
rfoot -10.7182 12.0341
rtoes -3.89618e-014
lfemur -9.97194 12.0286 -17.8454
ltibia 9.8363
lfoot -2.21789 -16.7139
ltoes 5.08889e-014
590
root -18.8654 16.6307 5.05278 -153.884 85.7591 -163.91
lowerback -13.4812 -1.63207 -0.117595
upperback -3.97898 -1.93665 -0.588279
thorax 3.34983 -0.883853 -0.854091
lowerneck -1.87483 1.61463 8.50729
upperneck 27.2967 3.89338 -5.66625
head 9.08999 2.55828 -3.03548
rclavicle 1.08586e-014 1.19271e-015
rhumerus -42.5275 -22.1491 -79.4019
rradius 18.4453
rwrist 29.0038
rhand -35.9164 3.0284
rfingers 7.12502
rthumb -9.02912 -26.7584
lclavicle 1.08586e-014 1.19271e-015
lhumerus -42.2844 16.449 80.1177
lradius 23.8545
lwrist -40.65
lhand -32.7278 3.75928
lfingers 7.12502
lthumb -5.95142 33.6557
rfemur -7.7258 -16.8427 21.0902
rtibia 11.0555
rfoot -10.7104 12.0255
rtoes -6.2816e-014
lfemur -10.0304 12.0024 -17.8612
ltibia 9.83679
lfoot -2.20395 -16.7186
ltoes -7.15625e-014
591
root -18.8654 16.6301 5.05274 -153.777 85.7541 -163.792
lowerback -13.4839 -1.62469 -0.0988405
upperback -3.96611 -1.92973 -0.593036
thorax 3.36404 -0.880592 -0.868831
lowerneck -1.87499 1.60955 8.5131
upperneck 27.2836 3.8841 -5.6671
head 9.08474 2.5539 -3.03747
rclavicle 1.67725e-014 1.19271e-014
rhumerus -42.5251 -22.1635 -79.3938
rradius 18.4435
rwrist 28.992
rhand -35.9092 3.05124
rfingers 7.12502
rthumb -9.02214 -26.7358
lclavicle 1.67725e-014 1.19271e-014
lhumerus -42.3172 16.5172 80.0729
lradius 23.8837
lwrist -40.8182
lhand -32.7721 3.71669
lfingers 7.12502
lthumb -5.99423 33.6119
rfemur -7.71684 -16.851 21.0977
rtibia 11.0533
rfoot -10.7031 12.0247
rtoes -5.64548e-014
lfemur -10.0126 12.0019 -17.846
ltibia 9.83629
lfoot -2.19858 -16.7346
ltoes -6.36111e-015
592
root -18.8652 16.6306 5.05274 -154.024 85.7667 -164.031
lowerback -13.4474 -1.63234 -0.125167
upperback -3.98252 -1.93607 -0.596457
thorax 3.32778 -0.883776 -0.857213
lowerneck -1.86895 1.61094 8.50217
upperneck 27.3028 3.88738 -5.65534
head 9.09033 2.5564 -3.0314
rclavicle -5.69021e-015 -2.38542e-015
rhumerus -42.5484 -22.1163 -79.4154
rradius 18.4361
rwrist 28.935
rhand -35.928 3.08028
rfingers 7.12502
rthumb -9.04035 -26.706
lclavicle -5.69021e-015 -2.38542e-015
lhumerus -42.2945 16.4418 80.0996
lradius 23.8577
lwrist -40.7086
lhand -32.7623 3.73765
lfingers 7.12502
lthumb -5.98477 33.6331
rfemur -7.709 -16.817 21.0679
rtibia 11.0732
rfoot -10.7055 11.9959
rtoes -9.54166e-015
lfemur -9.99558 12.0048 -17.8669
ltibia 9.81297
lfoot -2.20155 -16.7489
ltoes 2.70347e-014
